<?xml version="1.0" encoding="utf-8" ?>
<svg baseProfile="full" height="300mm" version="1.1" viewBox="0,0,200,300" width="200mm" xmlns="http://www.w3.org/2000/svg" xmlns:ev="http://www.w3.org/2001/xml-events" xmlns:xlink="http://www.w3.org/1999/xlink"><defs /><rect fill="#222222" height="300" width="200" x="0" y="0" /><text fill="#FFFFFF" style="font-size:12px; font-family:Arial; font-weight:bold;" x="10" y="20">Over 10km Runs</text><text fill="#FFFFFF" style="font-size:4px; font-family:Arial" x="10" y="280">ATHLETE</text><text fill="#FFFFFF" style="font-size:9px; font-family:Arial" x="10" y="290">wuxuefeng</text><text fill="#FFFFFF" style="font-size:4px; font-family:Arial" x="65" y="280">SPECIAL TRACKS</text><rect fill="yellow" height="2.6" width="2.6" x="65" y="283" /><text fill="#FFFFFF" style="font-size:3px; font-family:Arial" x="70" y="285.5">Over 20.0 km</text><rect fill="red" height="2.6" width="2.6" x="65" y="287" /><text fill="#FFFFFF" style="font-size:3px; font-family:Arial" x="70" y="289.5">Over 40.0 km</text><text fill="#FFFFFF" style="font-size:4px; font-family:Arial" x="120" y="280">STATISTICS</text><text fill="#FFFFFF" style="font-size:3px; font-family:Arial" x="120" y="285">Number: 8</text><text fill="#FFFFFF" style="font-size:3px; font-family:Arial" x="120" y="290">Weekly: 1.1</text><text fill="#FFFFFF" style="font-size:3px; font-family:Arial" x="141" y="285">Total: 123.5 km</text><text fill="#FFFFFF" style="font-size:3px; font-family:Arial" x="141" y="290">Avg: 15.4 km</text><text fill="#FFFFFF" style="font-size:3px; font-family:Arial" x="167" y="285">Min: 10.0 km</text><text fill="#FFFFFF" style="font-size:3px; font-family:Arial" x="167" y="290">Max: 19.6 km</text><polyline fill="none" points="13.012802275945432,48.967098956105474 13.0,49.58096888966975 13.20483641535975,50.09372718753002 14.433854907518253,50.54870712319098 15.33001422471716,50.12983680170146 15.458036984317005,50.44037880410906 15.70768136557308,50.678700910517364 16.354196301545016,50.46926637035358 16.699857752479147,50.64981342066312 17.647226173517993,51.75475240288506 18.722617354156682,52.08695326645102 18.94665718349279,53.4590725080634 19.541963015624788,54.26788955935626 19.66358463728102,54.9467117826789 19.83641536271898,55.12724862892355 20.002844950184226,55.87105609651189 19.951635846373392,56.69429117200343 19.689189189171884,57.21422470747348 19.433143669943092,57.58250889753981 19.209103840665193,57.61139385969 18.997866287303623,58.06633062423498 18.61379800850409,58.506822462972195 18.38975817922619,59.05562854112941 18.146514935971936,59.279482560588804 18.050497866264777,59.56832552229025 16.48862019914668,60.564825658657355 16.008534850610886,61.19304756564088 15.342816500662593,61.59741765297804 15.554054054053267,61.84292705655389 15.77169274535845,62.40615163813345 16.091749644372612,63.93694694493024 15.995732574665453,64.76731882297463 16.085348506399896,65.0200389722595 15.982930298690917,65.2149939654555 15.515647226158762,65.25831723216106 15.470839260291541,65.52547685359605 15.816500711225672,66.0670138643618 17.532005689892685,67.75658556064445 17.62802275957074,68.15370188658562 17.532005689892685,68.93348815655918 17.243954480771208,69.1284335256496 17.243954480771208,69.4100204346978 18.831436699838378,69.65550564194564 19.894025604531635,69.9587510250276 20.91180654335767,70.41361692488863 21.686344238958554,70.44249721137749 22.787339971546317,70.25477516117098 23.7475106685597,70.49303768744721 25.014935988583602,69.90821020839212 25.725462304370012,69.24395648112841 26.67283072543796,68.81074453012116 27.978662873385474,68.94070836398168 28.49715504978667,68.87572647368506 28.990042674238794,69.17897483938577 29.118065433838638,69.61940492384747 29.770981507841498,70.67353912457475 29.969416785199428,70.8251600142321 30.910384068265557,70.90458036452765 31.979374110960634,71.4172007115776 33.38762446655892,71.72765931035974 34.456614509253995,72.6518079443922 35.71763869133429,72.90450296125346 37.42674253199948,73.44598957146809 38.08605974394595,74.01635146882472 38.30369843528024,74.51451230138628 38.56614509245264,74.67334553203546 40.5568990042666,74.87549645640684 41.65149359885254,74.72388331143884 42.16998577522463,74.86105712176504 43.46301564719761,75.51804418677784 44.167140825040406,75.68409500087 45.14011379799922,75.4458480721878 45.97226173544186,75.4963853592999 46.292318634397816,75.3592126479416 46.58677098149201,75.01988965833152 46.77240398293361,74.98379138248856 49.396870554744964,75.86458462183509 49.832147937384434,75.61911863675778 50.51066856330726,74.52895169913972 50.83072546229232,74.37733789159392 51.07396870554658,74.86105712176504 51.73328591749305,75.04154861593997 52.28378378378693,74.66612584664836 53.04551920341328,74.75998170559615 53.090327169251395,74.60836833978101 52.795874822186306,74.0380107005476 53.21194879090763,74.39177731433301 53.551209103810834,74.45675468407717 54.2809388335736,74.37011817925668 54.83143669983838,74.16074623513123 55.33712660029414,73.54706666249695 56.143669985758606,72.83230446718517 56.91820768135949,72.31969326890248 57.37268847794621,71.74209921558213 57.763157894747565,71.57604014653771 58.1472261735471,71.55438024233445 58.57610241821385,71.28724093719211 59.325035561894765,70.16091396936827 60.06116642957204,69.98041136514075 61.1237553342944,70.12481348139409 61.58463726885384,70.42805706945364 61.74466571834637,70.41361692488863 61.936699857760686,70.2475550734307 62.61522048362531,69.0634517892322 63.793029871972976,68.68078048323514 64.22830725464155,68.44251251052629 64.63798008536105,67.22228045600787 64.5803698435484,66.4352569184557 64.68278805119917,66.17532082254183 65.41251778093283,65.92982483818923 65.97581792320125,65.88650193851208 66.19985775247915,65.72043060366559 66.30867709813174,65.1644501243718 66.58392603127868,64.82508349957061 66.8143669985875,64.2546554735527 66.628733997175,63.01269671133923 67.0,61.64796376883169 66.62233285917318,60.75979161100986 66.57752489333507,60.05213512453338 66.43029871978797,59.87883053190308 66.00142247512122,59.72718870246899 65.24608819346759,59.70552556028997 64.6187766714138,59.87883053190308 64.35633001421229,59.82828328767209 63.524182076827856,59.113397380882816 63.26173541962635,58.64402433884243 63.58179231864051,57.84247317761037 63.22972972973366,56.81705356443854 62.98008534850669,56.3982163841647 62.28876244666753,55.892720287018165 62.06472261736053,55.55331395499525 62.0135135135497,55.27167780972377 62.1287339971459,54.231781831374974 62.704836415388854,53.17020727427007 62.99288762448123,51.58142966016021 63.04409672829206,49.24153551444033 63.19772403984098,47.82601043806062 62.99928876248305,46.410460062390484 63.242532005679095,45.65211909619393 63.64580369842588,45.312668882412254 64.14509246090893,44.16430524415773 64.08748221906717,44.13541537815763 64.18990042671794,44.13541537815763" stroke="#4DD2FF" stroke-linecap="round" stroke-linejoin="round" stroke-width="0.5"><title>2021-08-15 17.6km</title><desc>1628977796000</desc></polyline><polyline fill="none" points="133.0,47.06070230977639 133.9523046092072,47.475815278347 134.7206412825326,47.072911551455036 134.8613226452726,47.42087400380842 135.08857715429622,47.59180226545868 135.2887775551062,47.567383969078946 135.50521042084438,47.39035105403309 135.80821643286617,47.48802444434841 136.64689378757612,48.428123540950764 137.61002004006878,48.74555661877821 137.6154308617406,49.36210502783797 137.7344689378806,49.83824743916921 138.2647294588969,50.58908051697654 138.383767535066,51.205611953293555 138.524448897806,51.32159248030075 138.63266533066053,51.822137713912525 138.59478957913234,52.57294855010696 138.38917835670873,53.012443670733774 138.20521042082692,53.33595906953997 137.9617234468751,53.39699953558738 137.70200400799513,53.744929129876255 136.99859719438246,54.98403212821722 135.66753507012618,55.887403118285874 135.41863727453165,56.27804625980207 134.71523046091897,56.75413950858638 134.93166332665714,56.97997743062297 135.28336673346348,58.11525923535373 135.35370741481893,58.7561356297374 135.27795591179165,59.41531638279412 135.39158316631801,59.574007076982525 135.21302605210803,59.83035278903844 134.85591182365897,59.8364562464194 134.8018036072026,60.019559709318855 135.06152304608258,60.48341957589582 135.68376753505436,61.02661981124402 136.5819639278634,62.0031484863066 136.64689378757612,62.3327237022022 136.56573146293522,62.93083754654799 136.30601202402613,63.12613887019688 136.30601202402613,63.35195531613135 137.8967935871624,63.651008357221144 137.88056112226332,63.58387411721924 137.74529058116605,63.63269902571483 137.89138276551967,63.47401794306643 137.89138276551967,63.651008357221144 138.6272545090178,63.846307582098234 139.50380761519773,64.23080126789137 140.1476953907695,64.23080126789137 141.02965931862127,64.06601852981112 141.85210420840303,64.26741959911305 142.86933867735206,63.7913797326255 143.5024048096093,63.20547987033933 144.31943887774833,62.85759940344724 145.41242484969553,62.95525024313247 145.88857715428458,62.91252801828523 146.25110220440547,63.16275780500291 146.32685370740364,63.49232731794473 146.71643286570907,63.992781627268414 146.95450901801814,64.47492309809604 147.22505010018358,64.59698367973033 147.9555110220099,64.64580785013095 148.84288577153347,65.07301782401919 149.1296593186271,65.08522378326597 150.04949899797793,65.36596023228049 150.8935871743597,66.12272219411534 151.97034068134963,66.31191134949768 153.4042084168177,66.76352201330155 153.93987975950586,67.28836301586853 154.14549098195857,67.69114518426795 154.3511022043822,67.81319990897464 156.02845691383118,67.990178865075 156.71563126251567,67.83761082725687 157.19178356713383,67.89863808403607 158.463326653291,68.51501026327605 159.1288577154337,68.66147410614212 159.87555110218818,68.4783942525537 160.6492985971854,68.49059959168517 160.86032064128085,68.39905949405511 161.08216432863264,68.13664385466836 161.30400801604264,68.06951410748297 163.5008016031643,68.80793762901885 163.91202404809883,68.57603690335236 164.14468937876518,68.08171952106204 164.43687374750152,67.71555614698445 164.72364729456604,67.55688473038754 164.6533066132397,67.61180949401023 164.7344689378806,67.58129574201303 164.89138276551967,67.95966528527788 165.4270541082078,68.1061303415554 165.9897795591096,67.78268624863267 166.62284569136682,67.8437135554268 166.40100200401503,67.25784911659866 166.81763527053408,67.59960399488773 167.59679358717403,67.56298748412519 168.04048096190672,67.39821293819114 168.5004008015676,66.86726997921505 168.99278557114303,66.51330567007972 169.22545090178028,66.232574026777 169.88016032063751,65.82368018190755 170.29138276551384,65.30493066947383 170.8703406813438,65.170665435704 171.28697394789197,64.92654613974446 171.90380761525012,63.974472389127186 172.4503006011946,63.827998303946515 173.2565130260482,63.91954464470473 173.53246492985636,63.992781627268414 173.85711422844906,64.25521349091287 174.03567134268815,64.84110417608463 175.12324649299262,66.15323661013099 175.16653306610533,66.03728175532888 175.11242484967806,66.26308839279227 175.18817635270534,66.08610487654369 175.14488977956353,66.18375101225683 175.7238476953935,66.83675588826736 175.90240480960347,67.54467922124604 176.10801603205618,67.81319990897464 176.50300601200433,68.22818431066116 177.42284569138428,68.96050345840194 177.76372745490517,69.96742922421254 177.59599198395154,70.69972937286366 178.3156312625215,70.8767007086717 178.65110220439965,71.30387097391213 179.33286573144142,71.79816459829453 179.59799599199323,71.82867643099598 180.020040080155,72.07887293541717 180.2418837675359,72.31076154488983 180.53406813627225,72.25584063092538 180.7288577154104,72.103282300508 180.90200400800677,72.11548697971739 181.35651302605402,72.77453635786514 181.49178356712218,72.87827502173604 181.85430861721397,72.93929769022361 182.2817635270476,72.78674091487483 182.94188376751845,72.03005417859822 183.71022044087294,71.70662901686592 184.5110220440547,71.77985749199433 184.8356713426765,71.70662901686592 185.44709418836283,71.9751330346844 185.663527054101,72.26194295690948 185.7879759518837,72.28635225535254 185.89619238476735,72.16430567433417 186.1072144288628,72.15210100399418 186.12344689379097,72.03005417859822 186.0476953907637,72.1093846403819 186.12344689379097,72.06056590579101 186.1505010020046,71.71883376827464 186.38316633267095,71.51745508587919 186.39939879759913,71.22453955902165 186.6158316633373,71.13910562260571 186.4967935871682,71.07197888193332 186.50761523045367,70.8767007086717 186.78897795590456,70.80957370525721 186.71322645287728,70.57157742427808 186.84849699400365,70.46783519125893 186.96753507014364,70.63870466600201 187.0,70.58988486052112" stroke="#4DD2FF" stroke-linecap="round" stroke-linejoin="round" stroke-width="0.5"><title>2021-08-08 16.4km</title><desc>1628374249000</desc></polyline><polyline fill="none" points="13.0,105.6889223602484 13.022983613540418,106.46685056298884 13.195360715064453,106.79098480207904 14.2928282613575,107.22532236581901 15.045541604602477,106.82988081147778 15.160459672304569,107.1086349227844 15.505213875323534,107.40035317133879 15.631623749737628,107.40035317133879 15.941902532445965,107.12160020366719 16.303894445649348,107.2966312645076 17.016386465227697,108.16529756152158 18.131091721646953,108.58017921254941 18.234517982549733,109.70812646497507 18.88955096830614,110.62862188441795 18.924026388587663,111.04348916428717 19.107895296881907,111.3287090153317 19.199829751014477,111.75005442951806 19.234305171325104,112.46309482848301 18.98148542243871,113.11778926331317 18.768886997248046,113.45485731537337 18.52755905513186,113.50671379698178 17.493296446074964,115.25036598348379 16.861247073858976,115.58742392991553 16.12577144074021,116.12541695846448 15.597148329427,116.78655944518687 15.068525218142895,117.10416492551303 15.269631836563349,117.3180616948448 15.505213875323534,117.83659664820152 15.792509044491453,119.21717753465055 15.717812300514197,119.99495778564597 15.781017237721244,120.18940151989227 15.614386039582314,120.35143755919125 15.229410512867616,120.34495612471073 15.177697382430779,120.58476880750095 15.396041711006546,120.98661527486547 17.08533730581985,122.72360293110978 17.142796339670895,123.06062547531474 17.05086188550922,123.6892978786127 16.769312619726406,123.85132594838069 16.809533943393035,124.12353227512358 18.780378804018255,124.49295348177111 20.050223451806232,125.01791716092703 20.86039582893136,125.05680320534157 21.72228133646422,124.88829685942619 22.630134071107022,125.0827272231545 23.44605235158815,124.74571425510658 24.325175569276325,124.01335364924307 25.238774207275128,123.56615629885346 25.566290700167883,123.5402317285916 26.439668014470953,123.70226013778301 26.85911896149628,123.66337335321441 27.318791232217336,123.93558039885829 27.54862736753421,124.4540671292707 28.192168546491303,125.37437177277752 29.214939348807093,125.51695311763615 30.03085762928822,125.91229080707126 31.116833368811058,126.16504653969605 31.415620344749186,126.30114540853538 32.24877633538563,127.05292494735477 33.49563736966229,127.28623422418605 34.891891891893465,127.7528504835791 35.4607363268733,128.2453865499774 35.7135560757597,128.71199652176438 36.08129389231908,128.89993578521535 37.672909129585605,129.02954878123273 38.534794637176674,128.87401315766328 39.046180038305465,128.98418425946147 40.517131304543,129.6646490503481 40.99404128539027,129.7359354615619 41.78123004891677,129.54799840530904 42.63736965312273,129.54151780829852 42.88444349862402,129.41838635328168 43.07980421365937,129.19804532323178 43.30964034900535,129.13323900810792 45.67120663970127,129.91739145886822 46.130878910422325,129.56744019275357 46.34347733561299,129.12027773801674 46.80314960630494,128.61478636322136 46.912321770592825,128.58886363184865 47.13066609916859,129.01658749223134 47.75122366461437,129.15268090884638 48.25111725900206,128.80920654755755 48.91764205149957,128.91937774964026 48.940625665010884,128.8221678743139 48.64758459245786,128.37500073785486 48.67056820599828,128.2842708311291 49.00957650563214,128.56294089103903 49.27963396467385,128.63422840554995 49.78527346244664,128.62126704457478 50.46329006168526,128.40092354710941 50.940200042532524,127.81765805546456 52.45137263246579,126.65111273342336 52.796126835484756,126.22985555732885 53.767184507334605,125.8993289504433 54.025750159606105,125.6595341768334 54.48542243029806,124.84941072294168 55.20366035326151,124.62257450331526 56.04830815066816,124.72627115057549 56.59416897210758,125.05032219940767 56.79527559055714,125.6724960771462 57.29516918491572,126.17800834793888 57.63417748454958,126.72888301638886 58.59374334962922,127.72692743832158 58.335177697386825,127.7528504835791 58.26622685676557,127.85654257025453 58.438603958289605,127.74636972315056 58.38689082785277,127.85654257025453 58.57650563950301,127.8695040704697 58.87529261544114,128.7055158486619 59.27750585228205,129.15916154123988 60.46690785270766,130.144210805076 60.52436688655871,130.53952279537043 60.72547350500827,131.03203958094673 60.55884230686934,131.71248479751375 60.599063630535966,131.92633766527433 61.30580974672921,132.12722916800703 61.66205575654749,132.55493176956952 62.44349861671799,133.06039516795136 62.86294956371421,133.15759925627208 63.39157267502742,133.60473635314702 63.736326878046384,133.55937474667007 63.95467120662215,133.39736877332325 64.12130240476108,133.46217120689835 64.58672057883814,134.14259319857956 64.90274526496069,134.31107763975888 65.24749946795055,134.298117312268 65.50031921683694,134.16203373135068 66.28750798039255,133.27424398702715 67.0,132.97615151743958" stroke="#4DD2FF" stroke-linecap="round" stroke-linejoin="round" stroke-width="0.5"><title>2021-07-25 15.5km</title><desc>1627159710000</desc></polyline><polyline fill="none" points="186.09228441753658,116.47200611234439 186.06505295005627,113.68614868329314 185.6565809379681,112.92821962774178 185.35703479577205,111.80155887309229 185.12102874432458,111.54549803386908 183.40544629350188,111.7913164507263 182.27987897122512,112.21125500112976 180.4553706505394,112.08834631971695 178.60363086228608,112.34440592082683 176.8880484114634,112.23173976829275 174.6278366111801,112.54925318126334 173.8835098335985,112.77458473603474 172.78517397880205,113.54275709221838 171.06959152800846,113.66566418149887 169.15431164903566,114.1470489856656 167.2844175491773,114.83327481925517 164.69742813918856,116.3183760695756 163.11800302570919,117.5371686280705 162.0832072617195,117.74200641502102 160.6580937972758,118.72522259125253 158.15279878972797,119.5240793956691 155.41149773073266,121.06032650894485 152.1981845688424,122.17665289420256 150.39183055976173,122.42244803891663 147.92284417548217,122.51462107947009 146.47957639937522,122.23810173079255 145.50832072616322,121.69530251088145 135.29652042358066,123.19055439898511 135.1694402420544,123.43634732474311 135.78668683810974,123.5490022359445 135.63237518907408,124.47071999232139 136.54916792738368,125.63821829198423 136.74886535550468,127.05148947110138 136.97579425110598,127.59426280662592 136.81240544631146,127.512334924053 136.99394856276922,127.50209393454134 136.92133131617447,127.40992498677952 136.62178517397842,127.31775596343505 134.15279878966976,127.48161195268767 134.04387291983585,128.44426106248284 133.63540090771858,128.45450196613092 133.71709531010129,128.16775631161 133.4538577912026,128.21896094644762 133.0,126.30389171481511 133.3721633887908,126.4267848384261 133.49016641452909,126.27316841291758 133.2541603630816,123.73334639234236 134.76096822996624,123.33393367103417 135.06051437213318,123.03693354720599 134.9697428139334,122.50437963425793 134.69742813918856,122.04351363286696 135.50529500754783,121.69530251088145 135.6868381240347,121.91037421370129 135.714069591515,122.37124076144391 136.0317700454034,122.48389674104692 135.7413010589953,122.4019651307317 135.84114977304125,123.14958885904343 145.23600605141837,121.73626858126954 146.30711043870542,122.25858466885984 147.63237518907408,122.56582829153922 151.69894099846715,122.37124076144391 155.35703479577205,121.15250066746376 158.35249621784897,119.5240793956691 160.59455370646901,118.83788222839212 161.97428139179829,117.86490890785353 163.1724659606698,117.60886189600569 164.87897125567542,116.30813405926165 167.23903177006287,114.94593836126296 169.64447806356475,114.08559572132071 171.29652042360976,113.71687542899599 172.7125567322073,113.66566418149887 174.4009077155788,112.67216135811032 176.942511346424,112.31367879950994 178.4583963691257,112.42634486986935 180.31921331313788,112.17028545560606 182.1437216338818,112.31367879950994 183.80484114974388,111.85277097085782 185.23903177003376,111.81180129452696 186.0287443267589,113.83978232764639 186.06505295005627,117.24015317325393 186.58245083206566,121.11153438414476 186.81845688351314,121.9001327133883 187.0,121.74651009652007" stroke="#4DD2FF" stroke-linecap="round" stroke-linejoin="round" stroke-width="0.5"><title>2021-06-04 15.2km</title><desc>1622799421000</desc></polyline><polyline fill="none" points="16.125466766301543,196.5527707800793 15.943988050799817,200.17007235740311 16.629574309219606,203.21857510323753 19.976848394377157,204.7883119903272 20.864077669917606,204.87931092728104 23.18297236750368,203.42332395294216 24.41299477231223,199.21456383011537 24.957430918584578,198.19080063304864 25.925317401066422,197.5537903014192 30.643764002947137,196.48451930285955 33.38610903674271,197.30353579761868 33.78939507098403,197.75854379964585 35.321882001589984,197.28078537578403 33.164301717770286,195.1194858368981 33.02315160573926,192.54865253111348 31.389843166572973,188.5217187951348 30.36146377888508,183.97143295979185 32.55937266617548,183.85767475039756 34.17251680360641,184.42646527838951 37.23749066470191,183.92592968225654 37.90291262138635,184.94975141865143 39.616878267377615,185.74605430845986 40.24197162059136,186.90637682600936 41.08887229277752,186.83812270969793 42.05675877525937,187.52066303270112 48.670649738633074,186.70161442105018 50.666915608686395,186.2693376806419 50.98954443610273,185.88256312007434 51.00970873783808,181.37773289372853 52.078416728880256,179.60308046714636 52.219566840911284,180.51316021183447 54.014189693843946,181.69625891586475 54.57879014196806,182.5608274971164 54.98207617632579,184.54022322832316 54.014189693843946,185.4957879598951 54.61911874532234,186.42859761949512 55.90963405533694,186.5196032532258 56.85735623596702,187.29314979921037 57.64376400306355,188.5217187951348 59.902165795327164,189.18150335129758 60.587752053746954,190.72857753682183 66.19342793128453,191.3428543318587 67.0,192.3211438829603 65.97162061231211,191.27460142930795 61.696788648259826,190.66032446618192 60.68857356230728,190.8195816018997 59.882001493591815,189.22700567021093 58.99477221805137,188.7492309081863 57.64376400306355,188.54447001576773 56.01045556389727,186.49685184787086 54.55862584011629,186.383094790217 54.09484690066893,185.768805782267 54.034353995579295,185.31377591224737 54.8610903659137,184.4719684645679 54.417475728085265,182.37881330795062 53.93353248690255,181.53699595564103 52.118745332350954,180.33114452850714 52.078416728880256,179.42106411971326 51.47348767740186,178.44272397684108 51.937266616965644,172.20855944293726 50.969380134367384,170.6386175352236 49.09410007460974,169.02315974855446 48.32785660948139,167.3621851981443 48.28752800589427,166.08800544214319 49.13442867808044,163.42585887071618 50.868558625807054,162.8342668843252 51.453323375666514,161.0139750465314 51.433159073931165,159.30743938067462 50.8887229275424,158.35177430644399 50.969380134367384,156.75899104346172 49.07393577299081,155.3254774077359 46.57356235990301,155.1206890727044 45.081404032884166,155.34823165678245 43.10530246456619,156.71348280074017 40.302464525797404,157.73741625319235 39.052277819253504,158.57931394207117 37.882748319651,158.55655998780276 32.781179985031486,160.9457138441212 28.345033607212827,164.4497647613607 21.731142643722706,165.8604726578924 19.17027632566169,166.88436855259351 16.770724421250634,167.2256662500149 15.238237490644678,167.90826024349371 13.0,170.45659464575874 13.443614637828432,172.1175485876738 13.241971620707773,172.8001291925175 13.56460044812411,173.52821311197476 13.867064973921515,173.48270792925905 14.189693801337853,174.8478597985959 14.290515310014598,182.10579177524778 14.613144137430936,184.24445245051174" stroke="#4DD2FF" stroke-linecap="round" stroke-linejoin="round" stroke-width="0.5"><title>2021-05-31 10.0km</title><desc>1622412365000</desc></polyline><polyline fill="none" points="185.9730730394076,177.89824604679598 185.89128239650745,174.23752155757393 185.41871423763223,173.20183277074102 185.17334230901906,172.2379158213589 184.90979468193837,171.9405355195413 183.4466509592894,172.11486199879437 182.00168293504976,172.5250408834254 180.04779535511625,172.42249630261358 178.28475260859705,172.67885757930344 176.7216425446095,172.5558042394623 175.61292494111694,172.8019107844375 174.36788959946716,172.88394617967424 173.53180747223087,173.19157837861712 172.53214405928156,173.91963789538568 171.01447324131732,174.00167247493664 169.06058566141292,174.42209875536355 166.97038034332218,175.2321839838405 164.44395826320397,176.69852594280383 162.9353752945026,177.8572301862514 161.6449007068295,178.17510271417996 160.43621676202747,179.06719178242201 158.03702457083273,179.81572082642379 155.0652978795115,181.45631499859155 152.09357118816115,182.49192774480616 151.07573207674432,182.63547727378318 151.07573207674432,183.30195482889394 146.60451026589726,184.48109774936165 143.5691686300852,184.98351141100284 139.62504207337042,186.77782759301772 138.47997307300102,187.56731764316646 137.38034331877134,188.0594644804587 136.87142376301927,187.6595953392316 136.6714910804294,187.71086069319426 136.73510602492024,188.04921144331456 136.51699764386285,187.956934066955 136.70784247724805,187.89541577400814 133.7633793335117,186.94187792972662 133.41804106358904,186.9521310678465 133.27263547622715,186.79833389816486 133.0,184.0914692826118 133.10905419048504,183.96842843368358 134.5994614607771,183.75310662411357 134.75395489731454,183.28144788609643 134.51767081787693,182.39964580800006 135.24469875459909,182.05102447432728 135.4082800403994,182.12279954314 135.42645573877962,182.75851958127896 135.79905755637446,182.77902661944245 135.80814540557913,182.93282928642293 135.82632110401755,182.7687731008118 135.57186132614152,183.53778440218593 135.72635476267897,183.56854474484862 145.31403567822417,182.23558884444355 146.26825984517927,182.6662378632318 147.6677886233374,182.93282928642293 151.73005721980007,182.65598433435662 155.2288791652827,181.43580771917914 158.36418714237516,179.76445187278296 160.4998317064892,179.11846105400764 161.69942780208657,178.2366263254662 163.0535173342505,177.8879920830659 165.23460114441696,176.2883622866575 167.36115785932634,175.15015030231734 170.4237630427524,174.1759957576287 172.6411982497666,173.9504008697113 174.15886906767264,173.0172535692618 175.7401548300404,172.88394617967424 176.6489397509431,172.64809425696876 178.34836755300057,172.76089306436188 180.7748232918384,172.48402306233766 182.1834399192303,172.61733092620125 183.5193537529558,172.2071523783452 184.6644227532961,172.0840985221148 184.76438909463468,172.17638892689138 184.64624705488677,172.10460750747734 184.76438909463468,172.11486199879437 184.64624705488677,172.2686792559325 184.79165264221956,172.06358953293966 185.0188488724816,172.1251164891437 185.83675530125038,174.23752155757393 185.87310669812723,177.5803727360617 186.2820599125116,180.70779687702452 186.6183103332296,182.26634954333713 187.0,182.26634954333713 186.8091551666439,182.04077088930353 186.67283742851578,182.13305312065495 186.85459441269631,181.90747419918625 186.75462807135773,182.16381384762644 186.6455738808727,181.92798139256774" stroke="#4DD2FF" stroke-linecap="round" stroke-linejoin="round" stroke-width="0.5"><title>2021-05-27 14.8km</title><desc>1622108964000</desc></polyline><polyline fill="none" points="65.69868238561321,238.63760389455274 65.56761442444986,234.48616532251617 65.11823855759576,233.71501657714543 64.90291262138635,232.61638483725255 64.62205270456616,232.2783422048451 62.92753120668931,232.48961896575202 61.729195561725646,232.91217133109603 59.744452149781864,232.75371437478316 58.06865464634029,233.02837296122016 56.14008321776055,232.91217133109603 53.65915395284537,233.26077587167674 52.91955617204076,233.52486952191975 51.871012482675724,234.27489220438292 50.13904299587011,234.40165612153942 48.24791955621913,234.86645596382732 46.094660194183234,235.6904147356472 43.482662968104705,237.2115539895094 42.07836338423658,238.299578838225 40.63661581138149,238.679856957242 39.438280166476034,239.58829407622397 37.341192787804175,240.20095694725023 34.1955617198837,241.94385946030525 30.63800277392147,243.1797198961358 28.71879334258847,243.42266526857566 26.116158113756683,243.50716788738646 24.973994452157058,243.29591122479178 23.691400832205545,242.7149534159762 13.262135922384914,244.16206109290943 13.0,244.77469977200963 13.346393897372764,246.46472071016615 13.355755894561298,247.58434600402688 13.683425797498785,247.60547090559703 13.636615811381489,247.72165779516217 13.674063800252043,247.54209618942696 13.655339805816766,247.70053291483055 14.43238557560835,247.6477206970958 14.610263522947207,247.47872143858694 14.376213592244312,246.83440950380464 14.43238557560835,246.64428398588643 13.599167822452728,245.67252646536508 13.7583217752981,244.3205024412382 23.73821081832284,242.86283386195282 24.76803051319439,243.30647406705975 26.368932038836647,243.59167044451897 29.214979195559863,243.46491658567538 30.815880721260328,243.21140845185437 34.04576976422686,241.99667427855456 36.78883495146874,240.44390856763494 39.48509015259333,239.60942043607065 40.926837725390214,238.62704062646662 41.86303744802717,238.48971805381734 45.96359223301988,235.7432324057154 48.051317614445,234.97209203140665 49.904993065225426,234.48616532251617 52.020804438274354,234.25376487139147 53.10679611650994,233.5143057874884 53.74341192789143,233.30303089619701 56.23370319005335,232.97555405288585 57.94694868236547,233.0811918454492 60.06276005547261,232.78540578338288 61.73855755897239,232.93329890885798 63.395631067978684,232.46849130697956 64.64077669905964,232.41567214329552 65.49271844659233,234.60236537321907 65.51144244108582,237.60239904364425 66.10124826635001,242.17624448047718 66.36338418861851,242.8839596245234 66.52253814146388,242.7149534159762 66.60679611650994,242.788893662575 66.46636615809985,242.65157602421095 66.46636615809985,242.86283386195282 67.0,242.7466420988494 66.75658807210857,243.02127698739787 66.87829403608339,243.39097677064274" stroke="#4DD2FF" stroke-linecap="round" stroke-linejoin="round" stroke-width="0.5"><title>2021-05-21 14.3km</title><desc>1621590116000</desc></polyline><polyline fill="none" points="133.0,248.0086706121292 133.23841059603728,248.19489489241823 133.32093734078808,248.51561376979953 133.14671421295498,251.2572058835285 133.32093734078808,252.14691587925336 134.99898115132237,252.93316541771492 135.3565970453201,252.89178399888624 136.3744268976152,252.2296792451234 136.95211411104538,250.33645214678108 137.4014263881836,249.75709765107604 137.979113601672,249.4881106296234 139.52878247579793,249.1363574085335 140.0881304126233,249.1880858917866 141.31686194601934,249.6639868311904 141.92205807438586,249.49845629606716 140.99592460517306,248.51561376979953 140.9409067753586,247.53276272922085 139.96892511460464,244.7496962231744 139.73968415689887,243.41504159458418 140.610799796239,243.363310478926 141.24350483954186,243.66335062142753 142.7198166071903,243.34261802602123 143.06826286297292,243.9013129287996 143.79266428935807,244.22204394451546 144.13194090680918,244.81177280045085 144.61793173715705,244.7186579217523 144.87468160979915,245.08077090959705 146.72694854816655,244.89454151733662 148.87264391238568,244.43931282706762 149.0652063168818,244.2427362369708 149.11105450842297,242.266605275021 149.57870606216602,241.41820340928825 149.58787570043933,241.8113660384479 149.95466123282677,242.1941809732307 150.36729495669715,242.3390295305653 150.61487519100774,242.79426664947096 150.78909831895726,243.76681255553558 150.45899133977946,244.09789011051907 150.53234844625695,244.40827444076422 151.3301069791196,244.58415851758764 151.97198166075395,245.46357481129962 153.05399898113683,245.8049934176015 153.32908813044196,246.48782754773129 154.00764136528596,246.4464437780698 155.896586856863,246.74647576619464 156.19001528271474,246.9947775011533 156.3183902190649,247.5120710368501 156.53846153849736,247.62587529819575 157.07030056032818,247.4810334912254 157.57463066733908,247.1396199289229 158.66581762605347,246.97408571066626 159.63779928680742,246.1464109964145 160.01375445746817,245.99122131525655 160.32552215998294,245.94983736441645 160.85736118187197,246.18779487555003 161.46255731023848,247.23273282052105 161.306673458952,248.50526801370142 161.09577177785104,249.06393749233393 162.44370860926574,249.26050572872919 163.45236882322934,249.70536942723265 164.80030565464403,250.79165717522847 165.0387162506231,251.381351883123 165.04788588895462,251.9917344055284 165.68976057053078,252.30209714073862 165.83647478348576,252.6124590270265 166.99184921040433,252.16760672638338 167.26693835965125,251.57791610472486 167.5695364238345,251.63998894605174 167.77126846666215,251.31927890029328 167.58787570043933,250.9778768877659 167.86296484974446,250.70889276042726 167.50534895568853,250.09850333689974 166.41416199697414,249.11566600863443 165.6989302088623,247.946595784073 166.48751910339342,245.67049530143413 166.25827814568765,245.12215517743607 165.68976057053078,244.88419543105556 165.51553744269768,244.47035120491637 165.73560876213014,243.79785111734964 165.73560876213014,242.7218426845575 166.0382068262552,242.35972216651862 166.61589403974358,242.0286395383664 166.52419765666127,241.149196614635 166.15741212427383,240.09385610552272 166.40499235864263,239.50410272065346 166.92766174220014,239.11093209378305 167.51451859402005,238.99711928953184 168.52317880792543,238.2418132401508 168.86245542537654,236.66910505129636 168.321446765156,236.40008699257305 168.7524197656312,235.06533410980774 168.53234844625695,234.4445134628113 168.6698930208804,234.05132529519324 168.79826795723056,234.2789607162922 171.06316861946834,235.26192660615925 171.7784004075802,235.2929674954794 173.11716760060517,234.98255821989005 173.7407030055765,235.06533410980774 175.02445236878702,235.37574315883103 176.06062149774516,236.1103745233995 176.93173713702708,236.24488397610548 177.62862964853412,236.25523085048917 179.50840550177963,235.89308968582918 180.4987264391384,236.0482931837032 181.56240448297467,235.6137228543521 182.97452878247714,235.60337592146243 184.14824248594232,236.43112757038762 185.15690269996412,237.48650216074748 187.0,238.6453335361657 185.2210901681101,237.51754244120093 184.23076923075132,236.46216813968203 182.90117167599965,235.5619881804232 181.62659195112064,235.5930289876269 180.3978604177246,236.02759939624957 179.11411105451407,235.903436592278 176.87671930715442,236.23453710080503 175.9230769230635,236.0069056050561 175.3270504330285,235.42747791772126 173.9057564951363,235.05498712686676 173.3097300051013,234.97221122942574 171.12735608761432,235.2205387405047 169.5134997452842,234.62041299118573 168.24808965873672,233.82368941714958 167.46867040242068,233.0993904015413 167.52368823229335,232.91314133549167 167.10188487009145,232.72689196353167 164.9378502292093,229.6640806347059 163.14977075904608,228.85697468717262 161.2149770759279,227.34622247160587 159.66530820174376,227.20135476309952 156.39174732548418,227.7083909330977 154.39276617422001,227.68769562360103 152.95313295978121,227.26344094653177 151.57768721343018,227.0668345822778 148.42333163524745,227.79117213330028 147.57972491084365,228.11194871312182 147.0203769740183,228.57759052060283 146.07590422820067,229.91241977043683 144.54457463067956,230.99889709406125 144.43453897099243,231.2161913095697 144.59959246055223,231.4231377943288 144.76464595011203,231.38174852757948 146.55272542027524,230.28492745418043 148.39582272031112,230.4401386278696 149.0652063168818,231.0402865005526 149.21192052977858,231.45417973445 149.08354559348663,231.80598779543652 149.34029546612874,232.53029507239262 149.18441161490045,233.5857059651753 148.87264391238568,233.92716032746102 148.24910850741435,234.05132529519324 147.8731533366954,235.3550492486538 148.139072847669,236.4828618478423 148.43250127357896,236.79326701700484 148.42333163524745,237.0208969344385 149.04686704021879,237.24852639501478 149.4778400407522,238.03487919810868 149.29444727458758,241.04573229299422 149.61538461537566,241.33543215577083 149.5695364238345,241.8113660384479 150.00967906269943,242.2355662941991 150.42231278656982,242.38041479868843 150.6515537442756,242.7218426845575 150.86245542537654,243.71508160028316 150.4131431482383,244.17031319686066 150.70657157414826,244.57381240298128 151.3392766173929,244.56346628741449 152.03616912889993,245.48426687729807 153.17320427915547,245.85672341985628 153.41161487519275,246.48782754773129 155.93326541013084,246.75682168265485 156.3275598573964,247.2741163033861 156.11665817629546,246.91201031653327" stroke="#4DD2FF" stroke-linecap="round" stroke-linejoin="round" stroke-width="0.5"><title>2021-05-15 19.6km</title><desc>1621026689000</desc></polyline></svg>