<?xml version="1.0" encoding="utf-8" ?>
<svg baseProfile="full" height="300mm" version="1.1" viewBox="0,0,200,300" width="200mm" xmlns="http://www.w3.org/2000/svg" xmlns:ev="http://www.w3.org/2001/xml-events" xmlns:xlink="http://www.w3.org/1999/xlink"><defs /><rect fill="#222222" height="300" width="200" x="0" y="0" /><text fill="#FFFFFF" style="font-size:12px; font-family:Arial; font-weight:bold;" x="10" y="20">Over 10km Runs</text><text fill="#FFFFFF" style="font-size:4px; font-family:Arial" x="10" y="280">ATHLETE</text><text fill="#FFFFFF" style="font-size:9px; font-family:Arial" x="10" y="290">wuxuefeng</text><text fill="#FFFFFF" style="font-size:4px; font-family:Arial" x="65" y="280">SPECIAL TRACKS</text><rect fill="yellow" height="2.6" width="2.6" x="65" y="283" /><text fill="#FFFFFF" style="font-size:3px; font-family:Arial" x="70" y="285.5">Over 20.0 km</text><rect fill="red" height="2.6" width="2.6" x="65" y="287" /><text fill="#FFFFFF" style="font-size:3px; font-family:Arial" x="70" y="289.5">Over 40.0 km</text><text fill="#FFFFFF" style="font-size:4px; font-family:Arial" x="120" y="280">STATISTICS</text><text fill="#FFFFFF" style="font-size:3px; font-family:Arial" x="120" y="285">Number: 5</text><text fill="#FFFFFF" style="font-size:3px; font-family:Arial" x="120" y="290">Weekly: 1.0</text><text fill="#FFFFFF" style="font-size:3px; font-family:Arial" x="141" y="285">Total: 79.1 km</text><text fill="#FFFFFF" style="font-size:3px; font-family:Arial" x="141" y="290">Avg: 15.8 km</text><text fill="#FFFFFF" style="font-size:3px; font-family:Arial" x="167" y="285">Min: 10.0 km</text><text fill="#FFFFFF" style="font-size:3px; font-family:Arial" x="167" y="290">Max: 19.6 km</text><polyline fill="none" points="14.017069701250875,55.289465274814575 14.0,56.107958519569365 14.273115220508771,56.791636250047304 15.91180654335767,57.398276164261915 17.106685632985318,56.83978240228316 17.27738264578511,57.25383840548602 17.61024182077381,57.57160121403285 18.472261735412758,57.29235516048357 18.933143669972196,57.533084560898715 20.19630156471976,59.00633653718978 21.630156472238014,59.44927102194197 21.928876244666753,61.27876334409666 22.722617354185786,62.35718607914896 22.884779516374692,63.26228237691248 23.115220483625308,63.50299817191262 23.337126600265037,64.49474146202556 23.268847795174224,65.59238822935004 22.918918918905547,66.28563294330525 22.577524893305963,66.77667853006278 22.278805120906327,66.8151918129297 21.99715504978667,67.42177416565391 21.48506401135819,68.00909661731566 21.186344238987658,68.74083805485134 20.862019914668053,69.03931008079235 20.733997155039106,69.42443402973731 18.651493598881643,70.75310087822436 18.01137980085332,71.5907300875333 17.123755334236193,72.12989020398527 17.405405405414058,72.45723607541731 17.695590327173704,73.20820218419249 18.122332859173184,75.2492625932573 17.994310099602444,76.35642509730678 18.113798008533195,76.6933852963557 17.977240398264257,76.95332528728613 17.35419630157412,77.01108964289597 17.294452347094193,77.36730247147352 17.75533428165363,78.08935181915876 20.042674253199948,80.3421140808714 20.170697012770688,80.8716025154572 20.042674253199948,81.91131754209346 19.658605974371312,82.17124470087583 19.658605974371312,82.54669391294738 21.775248933117837,82.87400752260146 23.192034139414318,83.27833470004407 24.549075391172664,83.88482256652787 25.58179231864051,83.92332961517968 27.049786628747825,83.67303354823525 28.33001422477537,83.99071691660356 30.019914651464205,83.21094694452768 30.967283072532155,82.32527530818334 32.23044096727972,81.74765937350458 33.9715504978667,81.92094448531861 34.66287339970586,81.83430196492554 35.32005689901416,82.23863311919558 35.490753911813954,82.8258732318136 36.361308677122,84.2313854994427 36.625889046961674,84.43354668565007 37.880512091040146,84.53944048604171 39.305832147976616,85.2229342821156 41.18349928877433,85.63687908049178 42.608819345681695,86.86907725919446 44.29018492178875,87.20600394835492 46.56899004266597,87.92798609529564 47.448079658614006,88.68846862511418 47.73826458037365,89.35268306852959 48.088193456613226,89.56446070939273 50.7425320057082,89.83399527522124 52.20199146514642,89.63184441526391 52.89331436698558,89.81474282903946 54.61735419629258,90.69072558237531 55.556187766749645,90.91212666783395 56.853485064028064,90.5944640962698 57.963015647255816,90.66184714574047 58.38975817922619,90.47895019727002 58.78236130869482,90.02651954445173 59.029871977254516,89.97838850999688 62.52916073970846,91.1527794957874 63.10953058322775,90.82549151568674 64.01422475106665,89.37193559887237 64.44096728309523,89.16978385547554 64.76529160741484,89.81474282903946 65.64438122333377,90.05539815460361 66.37837837840198,89.55483446220751 67.39402560456074,89.6799756074688 67.45376955904067,89.47782445305347 67.06116642963025,88.71734760073741 67.61593172120047,89.18903641912766 68.06827880511992,89.27567291211744 69.04125177810783,89.16015757235436 69.77524893314694,88.8809949801871 70.44950213373522,88.0627555500032 71.52489331437391,87.10973928958992 72.55761024184176,86.42625769188453 73.16358463728102,85.65613228745497 73.68421052632038,85.43472019539331 74.19630156474886,85.40584032312472 74.76813655762817,85.04965458293736 75.76671408253605,83.547885292508 76.74822190613486,83.3072151535307 78.16500711240224,83.49975130853272 78.77951635848149,83.90407609261456 78.99288762445212,83.88482256652787 79.24893314371002,83.6634067645864 80.15362731154892,82.08460238565021 81.7240398293361,81.57437397765898 82.3044096728845,81.25668334738293 82.85064011384384,79.629707274682 82.77382645805483,78.58034255795064 82.91038406829466,78.233761096737 83.88335704125348,77.90643311759777 84.63442389760166,77.84866925136157 84.9331436700013,77.62724080490443 85.07823613088112,76.8859334991721 85.44523470840068,76.4334446661087 85.7524893314694,75.67287396475149 85.5049786629097,74.01692894846201 86.0,72.19728502511862 85.49644381226972,71.01305548135133 85.43669985778979,70.06951349938754 85.24039829304093,69.83844070921623 84.66856330016162,69.63625160330412 83.66145092464285,69.60736741373694 82.82503556192387,69.83844070921623 82.47510668565519,69.77104438357492 81.36557610245654,68.8178631745177 81.01564722618787,68.19203245180688 81.44238975818735,67.12329757016414 80.97297297298792,65.75607141926594 80.64011379802832,65.1976218455602 79.71834992890945,64.52362704936968 79.41963015650981,64.07108527333912 79.3513513513899,63.69557041297958 79.5049786628806,62.309042441840575 80.27311522053787,60.89360969903646 80.6571834993083,58.77523954689241 80.72546230442822,55.65538068593014 80.93029871981707,53.768013917433564 80.6657183499774,51.88061341652792 80.9900426742679,50.86949212827312 81.52773826458724,50.416891843233316 82.19345661453553,48.88574032555334 82.11664295877563,48.84722050421988 82.25320056898636,48.84722050421988" stroke="#4DD2FF" stroke-linecap="round" stroke-linejoin="round" stroke-width="0.5"><title>2021-08-15 17.6km</title><desc>1628977796000</desc></polyline><polyline fill="none" points="114.0,52.74760307970428 115.26973947894294,53.301087037798425 116.29418837671983,52.763882068611565 116.48176352703013,53.227832005082746 116.78476953905192,53.455736353942484 117.05170340678887,53.423178625438595 117.34028056109673,53.18713473871321 117.7442885771452,53.31736592579546 118.86252505009179,54.57083138793678 120.14669338674867,54.994075491697004 120.15390781563474,55.81614003711729 120.31262525048805,56.45099658556137 121.01963927852921,57.45210735596629 121.17835671341163,58.27414927105565 121.36593186372193,58.428789973739185 121.51022044089041,59.09618361855246 121.45971943886252,60.09726473347837 121.1855711422686,60.68325822764746 120.94028056110255,61.11461209272238 120.61563126248075,61.1959993807759 120.26933867734624,61.65990550650167 119.33146292585297,63.312042837627814 117.5567134268349,64.51653749105026 117.22484969938523,65.037395013067 116.28697394789197,65.67218601144123 116.57555110219982,65.97330324082577 117.0444889779319,67.48701231380983 117.1382765531016,68.34151417297835 117.03727454907494,69.22042184372549 117.18877755510039,69.43200943597913 116.95070140282041,69.77380371872277 116.47454909820226,69.78194166189496 116.40240480960347,70.02607961242757 116.74869739476708,70.64455943452049 117.57835671340581,71.3688264149896 118.77595190380816,72.67086464841123 118.86252505009179,73.11029826960294 118.75430861723726,73.90778339539247 118.40801603204454,74.16818516026251 118.40801603204454,74.46927375484665 120.52905811622622,74.86801114296395 120.50741482968442,74.77849882296141 120.32705410820199,74.84359870095795 120.52184368736926,74.63202392408857 120.52184368736926,74.86801114296395 121.50300601200433,75.12841010946431 122.67174348694971,75.64106835718121 123.53026052101632,75.64106835718121 124.70621242481866,75.42135803974816 125.80280561119434,75.68989279882226 127.15911823645001,75.055172976834 128.00320641280268,74.27397316045244 129.0925851703214,73.8101325379248 130.54989979957463,73.94033365750511 131.1847695390461,73.88337069104455 131.66813627255033,74.21701040666812 131.7691382765479,74.65643642392388 132.28857715427876,75.32370883635303 132.6060120240145,75.96656413078745 132.96673346692114,76.12931157297135 133.94068136269925,76.19441046683642 135.12384769538767,76.76402376536134 135.50621242483612,76.78029837768554 136.73266533063725,77.15461364304065 137.8581162324699,78.16362959214894 139.29378757512313,78.41588179933024 141.2056112224236,79.01802935106389 141.91983967932174,79.71781735448894 142.19398797594476,80.25486024568818 142.46813627250958,80.41759987863043 144.70460921843187,80.65357182009757 145.62084168335423,80.45014776966855 146.2557114228257,80.531517445379 147.951102204388,81.35334701769898 148.8384769538825,81.54863214151555 149.8340681362606,81.3045256700716 150.86573146289447,81.3207994555778 151.14709418834536,81.19874599207105 151.4428857715102,80.84885847288388 151.73867735470412,80.7593521433082 154.66773547089542,81.7439168386918 155.21603206411237,81.4347158711389 155.52625250502024,80.77562602808757 155.91583166332566,80.2874081959817 156.298196392745,80.07584630718338 156.20440881763352,80.14907932534697 156.31262525048805,80.10839432267676 156.52184368734015,80.61288704704202 157.23607214426738,80.80817378874053 157.98637274547946,80.37691499817447 158.83046092183213,80.45828474056907 158.5346693386673,79.67713215546974 159.0901803607121,80.13280532651697 160.12905811623204,80.08398331217177 160.7206412825326,79.8642839175809 161.33386773543316,79.15635997228674 161.99038076150464,78.68440756010386 162.3006012023834,78.31009870237176 163.17354709419305,77.76490690920764 163.7218436873518,77.0732408926342 164.49378757513477,76.89422058093623 165.0492985971796,76.5687281863211 165.87174348699045,75.29929651883867 166.60040080157341,75.10399773858808 167.6753507013782,75.22605952627782 168.0432865731127,75.32370883635303 168.47615230458905,75.67361798787897 168.71422845689813,76.45480556810799 170.1643286572944,78.2043154801795 170.22204408815014,78.04970900710032 170.14989979958045,78.35078452371818 170.25090180360712,78.11480650206067 170.19318637272227,78.2450013496782 170.96513026050525,79.11567451768497 171.20320641281432,80.05957229499472 171.47735470940825,80.41759987863043 172.00400801602518,80.97091241421731 173.2304609218263,81.9473379445335 173.68496993987355,83.28990563227853 173.46132264527841,84.26630583048973 174.4208416833426,84.50226761156227 174.86813627250376,85.07182796521374 175.77715430859826,85.73088613105938 176.13066132264794,85.77156857465889 176.69338677352061,86.10516391388956 176.98917835668544,86.41434872651735 177.37875751499087,86.34112084122899 177.63847695387085,86.13770973401552 177.86933867732296,86.15398263961833 178.47535070139566,87.03271514382504 178.65571142281988,87.1710333623123 179.139078156295,87.25239692029572 179.70901803605375,87.04898788649734 180.58917835669126,86.04007223813096 181.61362725446816,85.6088386891497 182.68136272541597,85.70647665599245 183.1142284568923,85.6088386891497 183.9294589178171,85.9668440462483 184.21803607212496,86.34925727587688 184.38396793583524,86.38180300714157 184.52825651300373,86.21907423244556 184.80961923848372,86.2028013386589 184.83126252505463,86.04007223813096 184.73026052102796,86.14584618717345 184.83126252505463,86.08075454104983 184.86733466931037,85.625111691028 185.17755511021824,85.3566067811771 185.19919839678914,84.96605274536705 185.487775551097,84.8521408301458 185.32905811621458,84.76263850924443 185.34348697392852,84.50226761156227 185.71863727452,84.41276494033809 185.61763527049334,84.09543656570168 185.79799599197577,83.95711358834524 185.95671342682908,84.18493955466693 186.0,84.11984648069483" stroke="#4DD2FF" stroke-linecap="round" stroke-linejoin="round" stroke-width="0.5"><title>2021-08-08 16.4km</title><desc>1628374249000</desc></polyline><polyline fill="none" points="14.0,130.91856314699544 14.030644818034489,131.95580075064936 14.26048095340957,132.3879797361078 15.72377101512393,132.96709648775868 16.727388806146337,132.4398410819631 16.880612896376988,132.81151323037193 17.34028516706894,133.20047089511354 17.508831666316837,133.20047089511354 17.922536709927954,132.82880027155625 18.405192594160326,133.0621750193459 19.355181953607826,134.22039674869302 20.841455628862604,134.77357228340406 20.979357310046908,136.2775019533001 21.85273462437908,137.5048291792191 21.89870185145992,138.0579855523829 22.143860395852244,138.4382786871065 22.2664396679902,139.0000725726859 22.312406895071035,139.95079310463916 21.975313896575244,140.82371901775332 21.69184932965436,141.2731430871645 21.37007874014671,141.34228506263753 19.99106192807085,143.66715464464505 19.148329431802267,144.11656523988495 18.16769525432028,144.83388927795022 17.462864439236,145.71541259358492 16.758033624180825,146.1388865673507 17.026175782084465,146.4240822597858 17.34028516706894,147.11546219759475 17.723345392616466,148.9562367128674 17.623749733989825,149.99327704752795 17.708022983628325,150.2525353598612 17.48584805277642,150.46858341225743 16.972547350509558,150.4599414996119 16.903596509917406,150.77969174333703 17.194722281303257,151.3154870331491 19.447116407740396,153.6314705748082 19.523728452884825,154.0808339670839 19.401149180688662,154.91906383815513 19.025750159606105,155.13510126451 19.079378591181012,155.4980430334981 21.707171738671605,155.9906046423639 23.400297935702838,156.69055621456937 24.480527771869674,156.7424042737839 25.62970844859956,156.517729145904 26.840178761456627,156.77696963086782 27.92806980208843,156.32761900681362 29.10023409232963,155.35113819898834 30.318365609680768,154.7548750651331 30.755054266861407,154.72030897145305 31.919557352608535,154.9363468503725 32.47882528195623,154.88449780428346 33.091721642937046,155.24744053181348 33.398169823369244,155.93875617235608 34.25622472865507,157.1658290303676 35.61991913174279,157.35593749018153 36.70781017237459,157.8830544094235 38.15577782507171,158.22006205292564 38.55416045963648,158.40152721138293 39.6650351138378,159.40389992980636 41.32751649286365,159.71497896557412 43.189189189171884,160.3371339781006 43.947648435801966,160.99384873330564 44.284741434355965,161.61599536235008 44.77505852308241,161.8665810469538 46.897212172771106,162.03939837497455 48.0463928495592,161.83201754355105 48.72824005107395,161.97891234594135 50.689508406067034,162.88619873379503 51.325388380500954,162.98124728208495 52.37497339854599,162.73066454040963 53.51649287081091,162.72202374439803 53.84592466481263,162.55784847103496 54.106405618193094,162.26406043097086 54.412853798654396,162.17765201081056 57.561608852935024,163.2231886118243 58.17450521385763,162.75658692367142 58.457969780807616,162.16037031735323 59.07086614173022,161.4863818176309 59.2164290274377,161.45181817579578 59.507554798881756,162.0221166563133 60.33496488613309,162.2035745451285 61.001489678630605,161.7456087300743 61.89018940200913,161.89250366618217 61.92083422001451,161.7628904990779 61.53011278991471,161.1666676504683 61.56075760800741,161.04569444150547 62.012768674176186,161.41725452138053 62.372845286212396,161.51230454073084 63.047031283262186,161.4950227260997 63.95105341557064,161.2012313961386 64.58693339006277,160.42354407395032 66.60183017663076,158.86815031122387 67.06150244732271,158.30647407643846 68.35624600976007,157.8657719339244 68.70100021280814,157.54604556910635 69.31389657373074,156.46588096392225 70.27154713767231,156.1634326710846 71.39774420089088,156.30169486743398 72.12555862948648,156.73376293254114 72.39370078739012,157.56332810286403 73.06022557988763,158.23734446392336 73.51223664608551,158.97184402185667 74.79165779950563,160.30256991775968 74.44690359651577,160.3371339781006 74.3549691423541,160.47539009367028 74.58480527770007,160.32849296420318 74.51585443710792,160.47539009367028 74.76867418596521,160.49267209396203 75.16705682058819,161.60735446487524 75.70334113636636,162.21221538831014 77.28921047027688,163.525614406768 77.36582251539221,164.05269706049148 77.63396467332495,164.70938610792655 77.41178974247305,165.61664639668743 77.46541817404795,165.90178355369426 78.40774632897228,166.1696388906712 78.88274100873969,166.73990902608784 79.92466482229065,167.41386022393272 80.48393275160925,167.54346567502216 81.18876356669352,168.13964847086027 81.64843583738548,168.079166328891 81.93956160882954,167.86315836442373 82.16173653965234,167.94956160920265 82.78229410509812,168.8567909314297 83.20366035326151,169.08143685301184 83.66333262392436,169.0641564163525 84.00042562242015,168.88271164180333 85.0500106405234,167.69899198270286 86.0,167.3015353565861" stroke="#4DD2FF" stroke-linecap="round" stroke-linejoin="round" stroke-width="0.5"><title>2021-07-25 15.5km</title><desc>1627159710000</desc></polyline><polyline fill="none" points="118.1672890217742,172.07036104009603 117.92531740106642,176.89342980986112 118.83943241229281,180.95810013765004 123.30246452591382,183.0510826537793 124.48543689330108,183.17241456970805 127.5772964899661,181.23109860392287 129.21732636308298,175.61941844015382 129.94324122485705,174.25440084407455 131.23375653487165,173.40505373521592 137.52501867059618,171.9793590704794 141.18147871561814,173.07138106349157 141.7191934279399,173.6780583995278 143.7625093354145,173.04104716770235 140.8857356236549,170.15931444917805 140.697535474319,166.7315367081319 138.51979088876396,161.3622917268367 137.14861837192439,155.29524394636974 140.07916355493944,155.14356633386342 142.23002240480855,155.90195370450965 146.31665421964135,155.23457290965598 147.2038834951818,156.5996685581922 149.48917102313135,157.66140574461315 150.32262882741634,159.20850243468885 151.45182972366456,159.1174969462445 152.74234503367916,160.02755071024876 161.56086631829385,158.93548589470447 164.2225541449152,158.35911690752255 164.65272591484245,157.84341749342275 164.6796116505284,151.83697719161864 166.10455563862342,149.47077395618544 166.29275578795932,150.6842136157793 168.6855862584198,152.26167855446693 169.4383868558798,153.41443666280247 169.97610156831797,156.05363097108784 168.6855862584198,157.32771727984073 169.49215832713526,158.57146349264076 171.2128454070771,158.6928043376247 172.47647498128936,159.7241997322708 173.5250186707126,161.3622917268367 176.53622106043622,162.24200446836767 177.4503360716626,164.30477004908607 184.92457057512365,165.12380577580188 186.0,166.42819184393738 184.62882748316042,165.03280190573423 178.9290515310131,164.21376595491893 177.58476474974304,164.42610880252323 176.5093353248667,162.3026742269576 175.32636295736302,161.66564121088595 173.5250186707126,161.3926266876806 171.34727408515755,158.66246913050418 169.41150112019386,158.51079305360327 168.7931292008143,157.69174104303238 168.71247199410573,157.08503454964375 169.8147871545516,155.96262461942388 169.22330097085796,153.1717510772578 168.57804331590887,152.0493279408547 166.15832710987888,150.44152603799012 166.10455563862342,149.22808549294132 165.29798356990796,147.92363196911174 165.9163554891711,139.6114125905733 164.62584017927293,137.51815671363147 162.12546676618513,135.3642129980435 161.10380881268065,133.1495802642021 161.05003734119236,131.45067392283818 162.1792382374406,127.90114516092581 164.4914115011925,127.11235584574752 165.2710978341056,124.68530006203218 165.24421209853608,122.40991917424253 164.518297236762,121.13569907523924 164.62584017927293,119.01198805792956 162.0985810306156,117.10063654361875 158.76474981324282,116.82758543026284 156.77520537714008,117.13097554235719 154.14040328608826,118.95131040099659 150.40328603435773,120.31655500424677 148.73637042567134,121.43908525607549 147.17699775949586,121.40874665041338 140.37490664678626,124.59428512549493 134.4600448095007,129.26635301514762 125.64152352500241,131.14729687717045 122.22703510092106,132.51249140343862 119.0276325616287,132.96755500001018 116.98431665427051,133.8776803246583 114.0,137.27545952767832 114.59148618381005,139.49006478357478 114.32262882753275,140.40017225668998 114.75280059757642,141.37095081596635 115.15608663181774,141.31027723901207 115.58625840186141,143.1304797314515 115.72068708005827,152.80772236699704 116.15085884998553,155.65926993402536" stroke="#4DD2FF" stroke-linecap="round" stroke-linejoin="round" stroke-width="0.5"><title>2021-05-31 10.0km</title><desc>1622412365000</desc></polyline><polyline fill="none" points="14.0,240.6782274828438 14.317880794696975,240.9265265232243 14.427916454384103,241.3541516930709 14.19561895064544,245.00960784469498 14.427916454384103,246.19588783899962 16.665308201743755,247.24422055695322 17.142129393760115,247.18904533184832 18.49923586344812,246.30623899349303 19.26948548143264,243.7819361957081 19.86856851761695,243.0094635347632 20.63881813554326,242.65081417282636 22.705043301102705,242.18180987804953 23.450840550183784,242.25078118905367 25.089149261359125,242.88531577491085 25.896077432495076,242.66460839475621 24.661232806916814,241.3541516930709 24.587875700439326,240.04368363895628 23.291900152806193,236.332928297561 22.986245542531833,234.5533887927886 24.147733061632607,234.48441397190618 24.991339786036406,234.884467495227 26.95975547627313,234.45682403469982 27.424350483925082,235.2017505717231 28.390219052438624,235.62939192602062 28.842587875726167,236.41569706726295 29.490575649542734,236.29154389566975 29.832908813026734,236.77436121279607 32.30259806418326,236.52605535644398 35.163525216514245,235.9190837694332 35.42027508915635,235.65698164928472 35.48140601121122,233.02214036669466 36.104941416182555,231.89093787905585 36.11716760060517,232.4151547179208 36.60621497704415,232.92557463096455 37.1563932755962,233.11870604075375 37.486500254657585,233.72568886596127 37.71879775857087,235.0224167407141 37.278655119705945,235.46385348068725 37.376464595028665,235.8776992543426 38.44014263880672,236.11221135678352 39.295975547633134,237.28476641507586 40.73866530822124,237.73999122346868 41.105450840550475,238.65043673031323 42.010188487009145,238.5952583707549 44.528782475797925,238.99530102158315 44.92002037697239,239.32637000153773 45.09118695871439,240.01609471580014 45.38461538462434,240.16783373092767 46.09373408043757,239.974711321629 46.76617422309937,239.51949323856388 48.221090168110095,239.2987809475453 49.51706571574323,238.19521466188598 50.01833927666303,237.98829508700874 50.434029546624515,237.9331164858886 51.143148242495954,238.25039316740003 51.950076413631905,239.64364376068988 51.74223127862206,241.3403573516116 51.46102903713472,242.08524998977373 53.25827814574586,242.3473409716389 54.603158430953044,242.94049256964354 56.40040753950598,244.38887623362825 56.71828833420295,245.17513584416884 56.73051451856736,245.98897920736636 57.586347427393775,246.40279618765635 57.78196637798101,246.81661203604017 59.322465613891836,246.22347563516814 59.68925114616286,245.43722147296648 60.09271523175994,245.51998526140233 60.36169128882466,245.09237186705286 60.11716760060517,244.637169183683 60.48395313299261,244.27852368056483 60.00713194091804,243.46467111587117 58.552215995965526,242.15422134484106 57.59857361181639,240.5954610454355 58.65002547123004,237.56066040191217 58.34437086095568,236.82954023657658 57.586347427393775,236.5122605747456 57.354049923538696,235.96046827321697 57.647478349506855,235.06380148979952 57.647478349506855,233.62912357940513 58.05094243504573,233.14629622202483 58.82119205297204,232.70485271781217 58.6989302089205,231.53226215284667 58.20988283236511,230.12514147402544 58.5399898114847,229.3388036275428 59.236882322933525,228.81457612504892 60.01935812534066,228.66282571938063 61.36423841060605,227.65575098685804 61.816607233835384,225.5588067350618 61.09526235354133,225.2001159900974 61.6698930208222,223.42044547974365 61.376464595028665,222.59268461707688 61.55985736119328,222.06843372693402 61.73102394293528,222.37194762172294 64.75089149264386,223.68256880821718 65.70453387673479,223.72395666062948 67.4895568008069,223.31007762652007 68.32093734078808,223.42044547974365 70.0326031583827,223.83432421176985 71.41416199697414,224.81383269786602 72.57564951607492,224.99317863480246 73.50483953137882,225.00697446732374 76.01120733574498,224.52411958111043 77.33163525216514,224.73105757826124 78.74987264390802,224.1516304724646 80.63270504330285,224.1378345619596 82.1976566479425,225.2415034271835 83.54253693326609,226.6486695476633 86.0,228.19377804821124 83.62812022410799,226.6900565882679 82.30769230768783,225.28289085290453 80.53489556798013,224.0826509072358 78.83545593480812,224.12403865017404 77.19714722363278,224.7034658616758 75.48548140603816,224.53791545637068 72.50229240959743,224.97938280107337 71.23076923075132,224.67587414006994 70.43606724403799,223.90330389028531 68.54100866022054,223.40664950248902 67.746306673449,223.29628163922462 64.83647478348576,223.6273849873396 62.68466632702621,222.82721732158097 60.99745287827682,221.7649192228564 59.95822720328579,220.79918720205023 60.03158430970507,220.5508551139792 59.469179826788604,220.30252261803253 56.583800305612385,216.21877417960786 54.19969434541417,215.14263291622046 51.61996943457052,213.12829662881268 49.55374426895287,212.935139684123 45.1889964339789,213.61118791079207 42.52368823229335,213.58359416479652 40.604177279688884,213.01792126204236 38.77024961792631,212.75577944304678 34.564442180329934,213.72156284439552 33.43963321449701,214.1492649508291 32.69383596535772,214.7701206941274 31.434538970992435,216.54989302724425 29.392766174220014,217.99852945873863 29.246051961323246,218.28825507941656 29.466123280697502,218.56418372577173 29.686194600129966,218.50899803677748 32.070300560386386,217.0465699389024 34.527763627062086,217.25351817048795 35.42027508915635,218.05371533407015 35.61589403974358,218.60557297925698 35.44472745800158,219.07465039391536 35.78706062148558,220.04039342985197 35.57921548647573,221.44760795356706 35.163525216514245,221.90288043660985 34.33214467653306,222.06843372693402 33.83087111561326,223.80673233153357 34.185430463578086,225.31048246378487 34.57666836475255,225.72435602267797 34.564442180329934,226.02786257925618 35.395822720311116,226.33136852669122 35.9704533877084,227.37983893080673 35.72592969943071,231.3943097239826 36.15384615381481,231.7805762076896 36.09271523181815,232.4151547179208 36.67957208357984,232.98075505893212 37.22975038207369,233.1738863982464 37.53540499234805,233.62912357940513 37.816607233835384,234.95344213370117 37.21752419765107,235.56041759581422 37.60876209882554,236.09841653730837 38.452368823229335,236.08462171655265 39.38155883853324,237.31235583640228 40.89760570554063,237.80896455980837 41.2154865002376,238.65043673031323 44.57768721348839,239.00909557686828 45.10341314319521,239.698821737853 44.82221090170788,239.21601375537284" stroke="#4DD2FF" stroke-linecap="round" stroke-linejoin="round" stroke-width="0.5"><title>2021-05-15 19.6km</title><desc>1621026689000</desc></polyline></svg>