<?xml version="1.0" encoding="utf-8" ?>
<svg baseProfile="full" height="200mm" version="1.1" viewBox="0,0,200,200" width="200mm" xmlns="http://www.w3.org/2000/svg" xmlns:ev="http://www.w3.org/2001/xml-events" xmlns:xlink="http://www.w3.org/1999/xlink"><defs /><rect fill="#1a1a1a" height="200" width="200" x="0" y="0" /><text alignment-baseline="middle" fill="#e1ed5e" style="dominant-baseline: central; font-size:9.0px; font-family:Arial;" text-anchor="middle" x="100.0" y="100.0">2022</text><line stroke="#e1ed5e" stroke-width="0.3" x1="100.0" x2="100.0" y1="15.0" y2="10.0" /><path d="M 100.0 14.0 a86.0,86.0 0 0,1 42.46469731375804,11.215312516191453" fill="none" id="id13" stroke="none" /><text fill="#e1ed5e" style="font-size:6.75px; font-family:Arial;" text-anchor="middle"><textPath startOffset="22.20632615414155" xlink:href="#id13">January</textPath></text><path d="M 107.08798089147638 80.2323363322302 l 4.41366247642193 -12.309259394573719 a34.07663119074161,34.07663119074161 0 0,0 0.5504474084775737,0.20273442595906319 l -4.62489221067208 12.23146170080833" fill="red" stroke="none" /><line stroke="#e1ed5e" stroke-width="0.3" x1="143.23703022742887" x2="145.7803849466894" y1="26.81831364943548" y2="22.513508569990506" /><path d="M 143.74570117128098 25.957352633546492 a86.0,86.0 0 0,1 28.547481713284135,27.462654790039103" fill="none" id="id14" stroke="none" /><text fill="#e1ed5e" style="font-size:6.75px; font-family:Arial;" text-anchor="middle"><textPath startOffset="19.985693538727396" xlink:href="#id14">February</textPath></text><path d="M 114.42810811169701 84.74124197986012 l 6.820769710421792 -7.2134526381909945 a30.9275776706119,30.9275776706119 0 0,0 0.38367391512727683,0.3690940023679958 l -6.943926869161487 7.094975549060697" fill="red" stroke="none" /><path d="M 114.68862486808459 84.99185889309783 l 5.267692738022385 -5.382278915150287 a28.531103046877337,28.531103046877337 0 0,0 0.34803081820699994,0.34653626326978926 l -5.359559356396708 5.290806801230379" fill="red" stroke="none" /><path d="M 115.19652480421416 85.50635884689758 l 24.240250253919385 -23.119067890066535 a54.49747800175626,54.49747800175626 0 0,0 0.6415979729633325,0.6844119834323122 l -24.63461554885318 22.698386489756167" fill="red" stroke="none" /><path d="M 116.15771136456269 86.58626213691792 l 6.51561943134157 -5.409108325780835 a29.468279013713907,29.468279013713907 0 0,0 0.32064505669270205,0.3930729260069831 l -6.607762980110681 5.2961512301657505" fill="red" stroke="none" /><path d="M 117.04232023915458 87.72973835380427 l 39.79173446558335 -28.649560998559977 a70.03243291118342,70.03243291118342 0 0,0 0.6959469025235808,0.9843675386987103 l -40.278993987910816 27.960366959529473" fill="red" stroke="none" /><path d="M 117.2510076193507 88.02491185347247 l 6.295610059266801 -4.370207645802601 a28.663773279904152,28.663773279904152 0 0,0 0.2778687124479415,0.40773804831913685 l -6.369903237383476 4.261191574213058" fill="red" stroke="none" /><line stroke="#e1ed5e" stroke-width="0.3" x1="172.23445277983987" x2="176.4835382374775" y1="55.19839476539836" y2="52.563006222186495" /><path d="M 173.08426987136738 54.67131705675599 a86.0,86.0 0 0,1 12.851231095245387,41.99856678651699" fill="none" id="id15" stroke="none" /><text fill="#e1ed5e" style="font-size:6.75px; font-family:Arial;" text-anchor="middle"><textPath startOffset="22.20632615414155" xlink:href="#id15">March</textPath></text><path d="M 118.21658344932153 89.55222093294921 l 24.738411275640075 -14.188250842797416 a49.51833540760852,49.51833540760852 0 0,0 0.4177045111131526,0.7430497165484387 l -24.978973428045663 13.760317616314184" fill="red" stroke="none" /><path d="M 118.89224826269711 90.83032412892265 l 11.7901167439703 -5.72253484715403 a34.10550487060079,34.10550487060079 0 0,0 0.2517990035750823,0.5303529182811038 l -11.886873941387138 5.518739513232386" fill="red" stroke="none" /><path d="M 119.04729006885535 91.15688171328212 l 8.387708549865705 -3.894175948013732 a30.24760839523273,30.24760839523273 0 0,0 0.21518679103084687,0.47413556994641276 l -8.453497657859899 3.7492183692252565" fill="red" stroke="none" /><path d="M 119.196687751892 91.48605970444005 l 26.46770458573301 -11.738715528216021 a49.95404683787764,49.95404683787764 0 0,0 0.3418505053122321,0.7890380984516631 l -26.665845800887922 11.281378285177755" fill="red" stroke="none" /><path d="M 119.34039704204932 91.81776055985345 l 21.749390596511667 -9.201399596451797 a44.615709725799334,44.615709725799334 0 0,0 0.2931428745876604,0.7098687226982593 l -21.904555157985524 8.825656303300233" fill="red" stroke="none" /><path d="M 120.18372546131832 94.20196356495316 l 33.30430114610184 -9.56709165802627 a55.65120081069798,55.65120081069798 0 0,0 0.25656059392111924,0.9229849615965794 l -33.46404851058932 8.992395393010739" fill="red" stroke="none" /><line stroke="#e1ed5e" stroke-width="0.3" x1="184.98032266829074" x2="189.97916517819016" y1="98.17113171792111" y2="98.06355123074" /><path d="M 185.9800911702706 98.14961562048488 a86.0,86.0 0 0,1 -9.607161424134198,41.387399972396054" fill="none" id="id16" stroke="none" /><text fill="#e1ed5e" style="font-size:6.75px; font-family:Arial;" text-anchor="middle"><textPath startOffset="21.466115282336823" xlink:href="#id16">April</textPath></text><path d="M 120.99980553446 99.90962569577887 l 44.92781583162171 -0.19335036647339574 a65.92823187890141,65.92823187890141 0 0,0 -0.004884034715822894,1.134877663952978 l -44.924487499616376 -0.5800367756832671" fill="red" stroke="none" /><path d="M 119.12269723197855 108.67885076344098 l 12.95715424509803 5.880614363544811 a35.229176765505144,35.229176765505144 0 0,0 -0.2553702348355396,0.5500447670331433 l -12.85400939342266 -6.102779197856785" fill="red" stroke="none" /><line stroke="#e1ed5e" stroke-width="0.3" x1="174.80103733775053" x2="179.2010983576182" y1="140.37084112569926" y2="142.7455964860345" /><path d="M 175.68104954172406 140.8457921977663 a86.0,86.0 0 0,1 -30.038265399797805,32.042727171017184" fill="none" id="id17" stroke="none" /><text fill="#e1ed5e" style="font-size:6.75px; font-family:Arial;" text-anchor="middle"><textPath startOffset="22.206326154141568" xlink:href="#id17">May</textPath></text><path d="M 115.07121518719521 114.62390073753431 l 24.732110875782418 23.998060540229382 a55.46134382267339,55.46134382267339 0 0,0 -0.6707108671802937,0.679426567380451 l -24.31535938354659 -24.4202276015905" fill="red" stroke="none" /><line stroke="#e1ed5e" stroke-width="0.3" x1="143.8653032363475" x2="146.44561519142675" y1="172.8068346515853" y2="177.08958963109032" /><path d="M 144.38136562736335 173.6633856474863 a86.0,86.0 0 0,1 -40.68145358897372,12.25698825130547" fill="none" id="id18" stroke="none" /><text fill="#e1ed5e" style="font-size:6.75px; font-family:Arial;" text-anchor="middle"><textPath startOffset="21.466115282336833" xlink:href="#id18">June</textPath></text><path d="M 106.91757812671514 119.82793768551818 l 11.460785767226021 32.850188585804894 a55.7920177702472,55.7920177702472 0 0,0 -0.9094903020599858,0.3085484904173024 l -10.893625732228807 -33.042600063120325" fill="red" stroke="none" /><path d="M 106.57524785965236 119.94407469862006 l 13.316250576759103 40.39091786001012 a63.52938719282376,63.52938719282376 0 0,0 -1.0415148557115335,0.3334601668437266 l -12.61901437595663 -40.61415087351355" fill="red" stroke="none" /><path d="M 106.2309692047433 120.05430185196036 l 6.1281272331069765 19.723306163412307 a41.65339559009233,41.65339559009233 0 0,0 -0.6865372672986314,0.2068480468859989 l -5.787714991368099 -19.82586957940403" fill="red" stroke="none" /><line stroke="#e1ed5e" stroke-width="0.3" x1="102.19456741930631" x2="102.32365962044197" y1="184.97166512339345" y2="189.96999836594603" /><path d="M 102.22038585953345 185.97133177190398 a86.0,86.0 0 0,1 -42.740103519485714,-10.115201625700543" fill="none" id="id19" stroke="none" /><text fill="#e1ed5e" style="font-size:6.75px; font-family:Arial;" text-anchor="middle"><textPath startOffset="22.20632615414155" xlink:href="#id19">July</textPath></text><path d="M 98.73552117531835 120.96189622390904 l -1.7622883191233871 29.21433253053641 a50.26743728658997,50.26743728658997 0 0,0 -0.8632528478930512,-0.059534970582919386 l 2.2649039277953684 -29.179669215437205" fill="red" stroke="none" /><path d="M 91.07499286063937 119.00905698771935 l -9.32766896695844 19.86667217032572 a42.947438836464585,42.947438836464585 0 0,0 -0.6664774408875349,-0.3199496733934045 l 9.668259075846217 -19.70316822043275" fill="red" stroke="none" /><line stroke="#e1ed5e" stroke-width="0.3" x1="58.666819895761336" x2="56.23545636021788" y1="174.27360380694188" y2="178.64263932499728" /><path d="M 58.180547188652646 175.14741091055294 a86.0,86.0 0 0,1 -31.652253787137756,-30.449443065178592" fill="none" id="id20" stroke="none" /><text fill="#e1ed5e" style="font-size:6.75px; font-family:Arial;" text-anchor="middle"><textPath startOffset="22.20632615414155" xlink:href="#id20">August</textPath></text><path d="M 87.95078237400918 117.19931262002967 l -24.363187913307378 34.77653888810435 a63.46142463854646,63.46142463854646 0 0,0 -0.8892839527095977,-0.6344804883049272 l 24.958199193865862 -34.3520141379552" fill="red" stroke="none" /><path d="M 86.51685102203217 116.09983520530335 l -40.44944693390351 48.29950561591003 a84.0,84.0 0 0,0 -1.1005380936917737,-0.937902439108194 l 41.274850504172335 -47.596078786578886" fill="red" stroke="none" /><path d="M 85.44109423537348 115.13401014063109 l -30.29095658352224 31.48750678902424 a64.69216330800842,64.69216330800842 0 0,0 -0.7958677843588987,-0.7789241349593449 l 30.828474320256934 -30.961432551142327" fill="red" stroke="none" /><path d="M 83.72743513129214 113.27417163493432 l -31.121343357922225 25.38690468133845 a61.162581362520186,61.162581362520186 0 0,0 -0.6584649570739529,-0.8215362775653348 l 31.55372622705104 -24.847440570194856" fill="red" stroke="none" /><path d="M 83.50135304334701 112.99209946851258 l -8.48762993206778 6.683707616695359 a31.80332399630801,31.80332399630801 0 0,0 -0.3349846884661118,-0.4330128662328815 l 8.60142143775196 -6.536616756349225" fill="red" stroke="none" /><path d="M 83.06392112726016 112.41649034213515 l -35.76154401244917 26.21816237317644 a65.34275666194631,65.34275666194631 0 0,0 -0.6572243156612599,-0.9128270919904196 l 36.20754812048604 -25.598701675734883" fill="red" stroke="none" /><line stroke="#e1ed5e" stroke-width="0.3" x1="26.63291911575756" x2="22.317208475507996" y1="142.92168965132927" y2="145.44649492493687" /><path d="M 25.769776987707644 143.4266507060508 a86.0,86.0 0 0,1 -11.730757126820373,-40.83630448921669" fill="none" id="id21" stroke="none" /><text fill="#e1ed5e" style="font-size:6.75px; font-family:Arial;" text-anchor="middle"><textPath startOffset="21.46611528233685" xlink:href="#id21">September</textPath></text><line stroke="#e1ed5e" stroke-width="0.3" x1="15.007084014347285" x2="10.007500721073583" y1="101.09737516637583" y2="101.16192664675087" /><path d="M 14.007167355692545 101.11028546245083 a86.0,86.0 0 0,1 10.666146001902534,-42.60595125391555" fill="none" id="id22" stroke="none" /><text fill="#e1ed5e" style="font-size:6.75px; font-family:Arial;" text-anchor="middle"><textPath startOffset="22.20632615414155" xlink:href="#id22">October</textPath></text><line stroke="#e1ed5e" stroke-width="0.3" x1="26.266209847984243" x2="21.928928074336255" y1="57.711370442889674" y2="55.22380399835377" /><path d="M 25.398753493254645 57.213857153982495 a86.0,86.0 0 0,1 29.58750427330803,-30.492523968695096" fill="none" id="id23" stroke="none" /><text fill="#e1ed5e" style="font-size:6.75px; font-family:Arial;" text-anchor="middle"><textPath startOffset="21.46611528233685" xlink:href="#id23">November</textPath></text><line stroke="#e1ed5e" stroke-width="0.3" x1="56.762969772571076" x2="54.21961505331055" y1="26.818313649435495" y2="22.513508569990535" /><path d="M 56.25429882871897 25.957352633546506 a86.0,86.0 0 0,1 42.265352541879196,-11.944610805530505" fill="none" id="id24" stroke="none" /><text fill="#e1ed5e" style="font-size:6.75px; font-family:Arial;" text-anchor="middle"><textPath startOffset="22.20632615414155" xlink:href="#id24">December</textPath></text></svg>