<?xml version="1.0" encoding="utf-8" ?>
<svg baseProfile="full" height="200mm" version="1.1" viewBox="0,0,200,200" width="200mm" xmlns="http://www.w3.org/2000/svg" xmlns:ev="http://www.w3.org/2001/xml-events" xmlns:xlink="http://www.w3.org/1999/xlink"><defs /><rect fill="#1a1a1a" height="200" width="200" x="0" y="0" /><text alignment-baseline="middle" fill="#e1ed5e" style="dominant-baseline: central; font-size:9.0px; font-family:Arial;" text-anchor="middle" x="100.0" y="100.0">2021</text><line stroke="#e1ed5e" stroke-width="0.3" x1="100.0" x2="100.0" y1="15.0" y2="10.0" /><path d="M 100.0 14.0 a86.0,86.0 0 0,1 42.46469731375804,11.215312516191453" fill="none" id="id1" stroke="none" /><text fill="#e1ed5e" style="font-size:6.75px; font-family:Arial;" text-anchor="middle"><textPath startOffset="22.20632615414155" xlink:href="#id1">January</textPath></text><line stroke="#e1ed5e" stroke-width="0.3" x1="143.23703022742887" x2="145.7803849466894" y1="26.81831364943548" y2="22.513508569990506" /><path d="M 143.74570117128098 25.957352633546492 a86.0,86.0 0 0,1 28.547481713284135,27.462654790039103" fill="none" id="id2" stroke="none" /><text fill="#e1ed5e" style="font-size:6.75px; font-family:Arial;" text-anchor="middle"><textPath startOffset="19.985693538727396" xlink:href="#id2">February</textPath></text><line stroke="#e1ed5e" stroke-width="0.3" x1="172.23445277983987" x2="176.4835382374775" y1="55.19839476539836" y2="52.563006222186495" /><path d="M 173.08426987136738 54.67131705675599 a86.0,86.0 0 0,1 12.851231095245387,41.99856678651699" fill="none" id="id3" stroke="none" /><text fill="#e1ed5e" style="font-size:6.75px; font-family:Arial;" text-anchor="middle"><textPath startOffset="22.20632615414155" xlink:href="#id3">March</textPath></text><line stroke="#e1ed5e" stroke-width="0.3" x1="184.98032266829074" x2="189.97916517819016" y1="98.17113171792111" y2="98.06355123074" /><path d="M 185.9800911702706 98.14961562048488 a86.0,86.0 0 0,1 -9.607161424134198,41.387399972396054" fill="none" id="id4" stroke="none" /><text fill="#e1ed5e" style="font-size:6.75px; font-family:Arial;" text-anchor="middle"><textPath startOffset="21.466115282336823" xlink:href="#id4">April</textPath></text><line stroke="#e1ed5e" stroke-width="0.3" x1="174.80103733775053" x2="179.2010983576182" y1="140.37084112569926" y2="142.7455964860345" /><path d="M 175.68104954172406 140.8457921977663 a86.0,86.0 0 0,1 -30.038265399797805,32.042727171017184" fill="none" id="id5" stroke="none" /><text fill="#e1ed5e" style="font-size:6.75px; font-family:Arial;" text-anchor="middle"><textPath startOffset="22.206326154141568" xlink:href="#id5">May</textPath></text><path d="M 115.80600337817218 113.82643327865902 l 4.839364589057436 4.23327453504856 a27.42962385485447,27.42962385485447 0 0,0 -0.3139270167137669,0.35270033119537203 l -4.765778722695331 -4.315949035984798" fill="red" stroke="none" /><path d="M 115.56566222782051 114.09645910891815 l 46.696986683461546 42.289377326754476 a84.0,84.0 0 0,0 -0.9798143680171121,1.0633949807946608 l -45.96212590744871 -43.08692356235047" fill="red" stroke="none" /><path d="M 115.07121518719521 114.62390073753431 l 13.34853333085323 12.952348168176789 a39.59964153295897,39.59964153295897 0 0,0 -0.4788904862731006,0.4851135342529419 l -13.123602219524596 -13.180202196410395" fill="red" stroke="none" /><path d="M 112.63410532772338 116.77436683061366 l 13.938927990896376 18.506786612878233 a44.16883389965933,44.16883389965933 0 0,0 -0.6112441414441436,0.45218380305678035 l -13.618298879033668 -18.743980364674783" fill="red" stroke="none" /><path d="M 111.1453310114006 117.79835938074945 l 17.115317075475883 27.332033827725336 a53.248630230662485,53.248630230662485 0 0,0 -0.7810326517217767,0.47977404596344864 l -16.642305223821797 -27.622596340517163" fill="red" stroke="none" /><line stroke="#e1ed5e" stroke-width="0.3" x1="143.8653032363475" x2="146.44561519142675" y1="172.8068346515853" y2="177.08958963109032" /><path d="M 144.38136562736335 173.6633856474863 a86.0,86.0 0 0,1 -40.68145358897372,12.25698825130547" fill="none" id="id6" stroke="none" /><text fill="#e1ed5e" style="font-size:6.75px; font-family:Arial;" text-anchor="middle"><textPath startOffset="21.466115282336833" xlink:href="#id6">June</textPath></text><path d="M 108.2653958097858 119.30500536409082 l 10.459178570655297 24.428896456649774 a47.57377275553042,47.57377275553042 0 0,0 -0.7555814758738814,0.3158331181947545 l -10.037125635283953 -24.6053146178645" fill="red" stroke="none" /><path d="M 107.93186726928326 119.44442032107085 l 2.469202314180769 6.053077544630947 a27.537331858615644,27.537331858615644 0 0,0 -0.4404385425404694,0.17525958569244154 l -2.364642695598433 -6.094683974729457" fill="red" stroke="none" /><path d="M 107.59598834532513 119.57807347666477 l 6.371114278378618 16.42105514117738 a38.61369209160158,38.61369209160158 0 0,0 -0.6217351991697126,0.23508705255976237 l -6.087508858448631 -16.528290443843773" fill="red" stroke="none" /><path d="M 107.2578585660854 119.70592522655815 l 9.042227009316347 24.55069187484298 a47.16291919533237,47.16291919533237 0 0,0 -0.7642199459891436,0.2740220829883889 l -8.618287502697468 -24.702701498871328" fill="red" stroke="none" /><path d="M 106.91757812671514 119.82793768551818 l 8.459719371072259 24.248195749144912 a46.68154685617953,46.68154685617953 0 0,0 -0.7609764953418711,0.2581645437548574 l -8.041073142793161 -24.390223279797894" fill="red" stroke="none" /><path d="M 105.88484417918355 120.15858648285463 l 1.6312011490747862 5.587694156945034 a26.82092288046325,26.82092288046325 0 0,0 -0.44429348156110493,0.12556177581680314 l -1.5347764994090756 -5.614944726100356" fill="red" stroke="none" /><path d="M 105.53697534728816 120.25689768951611 l 3.82491877391381 13.993377866822055 a35.50670974930924,35.50670974930924 0 0,0 -0.5909492572238932,0.1560750698870484 l -3.5834790738784195 -14.057144286012687" fill="red" stroke="none" /><path d="M 104.48393922423573 120.51570834832081 l 0.9032389463029049 4.132657885066111 a25.230212972075694,25.230212972075694 0 0,0 -0.4250792752131262,0.08907949508928814 l -0.8319682096604006 -4.14759336088194" fill="red" stroke="none" /><path d="M 104.13013068566511 120.58985236759428 l 3.588092551307287 17.887641223823536 a39.24396110248479,39.24396110248479 0 0,0 -0.6634703392319248,0.1271556695865145 l -3.2796545975036575 -17.946754091758518" fill="red" stroke="none" /><path d="M 103.7750983002368 120.6578951692458 l 2.987710165760666 16.349191065170988 a37.61994165212551,37.61994165212551 0 0,0 -0.6380181386936176,0.11092763157411518 l -2.705843055594998 -16.39819727526611" fill="red" stroke="none" /><path d="M 103.06178313531738 120.77559828337769 l 0.8391697404741872 5.694150319973865 a26.755654065333147,26.755654065333147 0 0,0 -0.45621117832817365,0.06322671231056055 l -0.7410299709591831 -5.707751597777028" fill="red" stroke="none" /><path d="M 102.70371172650421 120.8252237178851 l 1.752605222705413 13.4993666278043 a34.61266044601608,34.61266044601608 0 0,0 -0.591501649967112,0.07162261233764705 l -1.5199761496869209 -13.527534768867296" fill="red" stroke="none" /><path d="M 100.90346689309514 120.98055641714683 l 0.1972626908041899 4.580888403378009 a25.58513370943383,25.58513370943383 0 0,0 -0.44016133851910727,0.015160046478182285 l -0.11838100061043032 -4.583605248282285" fill="red" stroke="none" /><line stroke="#e1ed5e" stroke-width="0.3" x1="102.19456741930631" x2="102.32365962044197" y1="184.97166512339345" y2="189.96999836594603" /><path d="M 102.22038585953345 185.97133177190398 a86.0,86.0 0 0,1 -42.740103519485714,-10.115201625700543" fill="none" id="id7" stroke="none" /><text fill="#e1ed5e" style="font-size:6.75px; font-family:Arial;" text-anchor="middle"><textPath startOffset="22.20632615414155" xlink:href="#id7">July</textPath></text><path d="M 100.54218724476979 120.99299961872073 l 0.4416085775691049 17.09868461488472 a38.10438638756381,38.10438638756381 0 0,0 -0.6558314872557459,0.011290733812395008 l -0.147217400420691 -17.103752825976276" fill="red" stroke="none" /><path d="M 100.18074693466247 120.99922214144158 l 0.11061444246277324 12.851212407365288 a33.85168844526278,33.85168844526278 0 0,0 -0.5827227542504485,0.0 l 0.11061444246276439 -12.851212407365288" fill="red" stroke="none" /><path d="M 99.81925306533755 120.99922214144158 l -0.10386173959995004 12.066681772108835 a33.067128749221844,33.067128749221844 0 0,0 -0.569133012832277,-0.009798140950237417 l 0.31155444232489504 -12.063106153879438" fill="red" stroke="none" /><path d="M 99.45781275523022 120.99299961872073 l -0.16789569747125266 6.500769516434244 a27.50293728026267,27.50293728026267 0 0,0 -0.47315483373941175,-0.016296409164419448 l 0.27977088288530744 -6.49691630884373" fill="red" stroke="none" /><path d="M 99.09653310690486 120.98055641714683 l -0.5117960567258751 11.885068644214051 a32.896083047850674,32.896083047850674 0 0,0 -0.565518022987374,-0.02923082221140705 l 0.7163021481267381 -11.874498015240443" fill="red" stroke="none" /><path d="M 98.37488393609728 120.93702456842531 l -0.895357956248988 11.535257046503672 a32.56995337063771,32.56995337063771 0 0,0 -0.5585835132061048,-0.04819693591626828 l 1.0937857871966343 -11.518135858308739" fill="red" stroke="none" /><path d="M 98.01472825383883 120.90594882070398 l -0.6379342338373747 6.717780812308208 a27.748002602912806,27.748002602912806 0 0,0 -0.47510844025288546,-0.049246932433416914 l 0.7534752706958535 -6.7058045114190294" fill="red" stroke="none" /><path d="M 92.06813273071674 119.44442032107085 l -20.090679461696364 49.25090180239864 a74.19103993702456,74.19103993702456 0 0,0 -1.1783252032648233,-0.4925400305297014 l 20.93547612445865 -48.89777672884896" fill="red" stroke="none" /><line stroke="#e1ed5e" stroke-width="0.3" x1="58.666819895761336" x2="56.23545636021788" y1="174.27360380694188" y2="178.64263932499728" /><path d="M 58.180547188652646 175.14741091055294 a86.0,86.0 0 0,1 -31.652253787137756,-30.449443065178592" fill="none" id="id8" stroke="none" /><text fill="#e1ed5e" style="font-size:6.75px; font-family:Arial;" text-anchor="middle"><textPath startOffset="22.20632615414155" xlink:href="#id8">August</textPath></text><path d="M 87.65650970185807 116.9893568818739 l -31.1249696210984 42.83984546169437 a73.95296113624009,73.95296113624009 0 0,0 -1.023421047059199,-0.7571024240726808 l 31.857775638576165 -42.29773308888192" fill="red" stroke="none" /><path d="M 85.70375840098266 115.38237550388516 l -38.680516359232115 41.6192062228984 a77.818488825742,77.818488825742 0 0,0 -0.9733394493514789,-0.9203532021470541 l 39.39119164297441 -40.94721838400541" fill="red" stroke="none" /><path d="M 82.44556493220864 111.52570212397912 l -23.16503761678527 15.209451186026133 a48.7118453583876,48.7118453583876 0 0,0 -0.4541686865286535,-0.7048798872562214 l 23.42341116669097 -14.808449698848463" fill="red" stroke="none" /><line stroke="#e1ed5e" stroke-width="0.3" x1="26.63291911575756" x2="22.317208475507996" y1="142.92168965132927" y2="145.44649492493687" /><path d="M 25.769776987707644 143.4266507060508 a86.0,86.0 0 0,1 -11.730757126820373,-40.83630448921669" fill="none" id="id9" stroke="none" /><text fill="#e1ed5e" style="font-size:6.75px; font-family:Arial;" text-anchor="middle"><textPath startOffset="21.46611528233685" xlink:href="#id9">September</textPath></text><line stroke="#e1ed5e" stroke-width="0.3" x1="15.007084014347285" x2="10.007500721073583" y1="101.09737516637583" y2="101.16192664675087" /><path d="M 14.007167355692545 101.11028546245083 a86.0,86.0 0 0,1 10.666146001902534,-42.60595125391555" fill="none" id="id10" stroke="none" /><text fill="#e1ed5e" style="font-size:6.75px; font-family:Arial;" text-anchor="middle"><textPath startOffset="22.20632615414155" xlink:href="#id10">October</textPath></text><path d="M 80.803312248108 91.48605970444005 l -7.149923342444991 -3.1710689490903112 a28.821577979073307,28.821577979073307 0 0,0 0.20504176054922085,-0.4517823400549027 l 7.094279264932418 3.2936732979872847" fill="red" stroke="none" /><path d="M 81.43458229118936 90.18545643968196 l -7.19650941943106 -3.8044096980228987 a29.140226100936673,29.140226100936673 0 0,0 0.2382448004034913,-0.44143143203330415 l 7.129956519809097 3.9277221133886755" fill="red" stroke="none" /><path d="M 81.6062741919709 89.86733742301443 l -6.322297400133104 -3.48280206715586 a28.218126810656276,28.218126810656276 0 0,0 0.2380297876928073,-0.4234284322280551 l 6.261409971147867 3.5911140093186997" fill="red" stroke="none" /><line stroke="#e1ed5e" stroke-width="0.3" x1="26.266209847984243" x2="21.928928074336255" y1="57.711370442889674" y2="55.22380399835377" /><path d="M 25.398753493254645 57.213857153982495 a86.0,86.0 0 0,1 29.58750427330803,-30.492523968695096" fill="none" id="id11" stroke="none" /><text fill="#e1ed5e" style="font-size:6.75px; font-family:Arial;" text-anchor="middle"><textPath startOffset="21.46611528233685" xlink:href="#id11">November</textPath></text><path d="M 81.78341655067845 89.55222093294921 l -11.807746446086524 -6.772111054285578 a34.61191993315586,34.61191993315586 0 0,0 0.3008605300859676,-0.5142681712906351 l 11.689426241530231 6.974358637930105" fill="red" stroke="none" /><path d="M 84.07557802195018 86.31012108654704 l -3.4773273885361458 -2.9893826574748483 a25.58565310941364,25.58565310941364 0 0,0 0.28998064836739496,-0.33149800930758333 l 3.425354876590907 3.048796222985375" fill="red" stroke="none" /><line stroke="#e1ed5e" stroke-width="0.3" x1="56.762969772571076" x2="54.21961505331055" y1="26.818313649435495" y2="22.513508569990535" /><path d="M 56.25429882871897 25.957352633546506 a86.0,86.0 0 0,1 42.265352541879196,-11.944610805530505" fill="none" id="id12" stroke="none" /><text fill="#e1ed5e" style="font-size:6.75px; font-family:Arial;" text-anchor="middle"><textPath startOffset="22.20632615414155" xlink:href="#id12">December</textPath></text></svg>